<svg xmlns="http://www.w3.org/2000/svg" width="1100" height="620" viewBox="0 0 1100 620" role="img" aria-labelledby="title desc">
<defs>
<marker id="arrow" markerWidth="12" markerHeight="12" refX="10" refY="6" orient="auto"><path d="M2,2 L10,6 L2,10 Z" fill="#64748b"/></marker>
<linearGradient id="heat" x1="0" x2="1"><stop offset="0" stop-color="#dbeafe"/><stop offset="0.5" stop-color="#34d399"/><stop offset="1" stop-color="#fb7185"/></linearGradient>
</defs>
<title id="title">图3-20｜从组学矩阵到AIVC状态转移模型</title>
<desc id="desc">多组学矩阵经过encoder得到当前细胞状态 z_t，加入扰动 u 和上下文 c，模型预测未来状态 z_(t+Δ t)，实验验证后回流训练。</desc>
<rect width="1100" height="620" fill="#f8fafc"/>
<rect x="44" y="44" width="1012" height="532" rx="10" fill="#ffffff" stroke="#d1d5db" stroke-width="2"/>
<text x="550" y="92" text-anchor="middle" font-family="Inter, 'Microsoft YaHei', Arial, sans-serif" font-size="28" font-weight="700" fill="#111827">图3-20｜从组学矩阵到AIVC状态转移模型</text>
<text x="170" y="275" text-anchor="start" font-family="Inter, 'Microsoft YaHei', Arial, sans-serif" font-size="24" font-weight="600" fill="#253041">残基/特征</text>
<text x="170" y="317" text-anchor="start" font-family="Inter, 'Microsoft YaHei', Arial, sans-serif" font-size="24" font-weight="600" fill="#253041">距离或置信度矩阵</text>
<text x="170" y="359" text-anchor="start" font-family="Inter, 'Microsoft YaHei', Arial, sans-serif" font-size="24" font-weight="600" fill="#253041">结构解释</text>
<rect x="388" y="210" width="38" height="38" rx="4" fill="#dbeafe" opacity="0.88"/><rect x="430" y="210" width="38" height="38" rx="4" fill="#facc15" opacity="0.88"/><rect x="472" y="210" width="38" height="38" rx="4" fill="#93c5fd" opacity="0.88"/><rect x="514" y="210" width="38" height="38" rx="4" fill="#fb7185" opacity="0.88"/><rect x="556" y="210" width="38" height="38" rx="4" fill="#34d399" opacity="0.88"/><rect x="598" y="210" width="38" height="38" rx="4" fill="#dbeafe" opacity="0.88"/><rect x="640" y="210" width="38" height="38" rx="4" fill="#facc15" opacity="0.88"/><rect x="388" y="252" width="38" height="38" rx="4" fill="#34d399" opacity="0.88"/><rect x="430" y="252" width="38" height="38" rx="4" fill="#dbeafe" opacity="0.88"/><rect x="472" y="252" width="38" height="38" rx="4" fill="#facc15" opacity="0.88"/><rect x="514" y="252" width="38" height="38" rx="4" fill="#93c5fd" opacity="0.88"/><rect x="556" y="252" width="38" height="38" rx="4" fill="#fb7185" opacity="0.88"/><rect x="598" y="252" width="38" height="38" rx="4" fill="#34d399" opacity="0.88"/><rect x="640" y="252" width="38" height="38" rx="4" fill="#dbeafe" opacity="0.88"/><rect x="388" y="294" width="38" height="38" rx="4" fill="#fb7185" opacity="0.88"/><rect x="430" y="294" width="38" height="38" rx="4" fill="#34d399" opacity="0.88"/><rect x="472" y="294" width="38" height="38" rx="4" fill="#dbeafe" opacity="0.88"/><rect x="514" y="294" width="38" height="38" rx="4" fill="#facc15" opacity="0.88"/><rect x="556" y="294" width="38" height="38" rx="4" fill="#93c5fd" opacity="0.88"/><rect x="598" y="294" width="38" height="38" rx="4" fill="#fb7185" opacity="0.88"/><rect x="640" y="294" width="38" height="38" rx="4" fill="#34d399" opacity="0.88"/><rect x="388" y="336" width="38" height="38" rx="4" fill="#93c5fd" opacity="0.88"/><rect x="430" y="336" width="38" height="38" rx="4" fill="#fb7185" opacity="0.88"/><rect x="472" y="336" width="38" height="38" rx="4" fill="#34d399" opacity="0.88"/><rect x="514" y="336" width="38" height="38" rx="4" fill="#dbeafe" opacity="0.88"/><rect x="556" y="336" width="38" height="38" rx="4" fill="#facc15" opacity="0.88"/><rect x="598" y="336" width="38" height="38" rx="4" fill="#93c5fd" opacity="0.88"/><rect x="640" y="336" width="38" height="38" rx="4" fill="#fb7185" opacity="0.88"/><rect x="388" y="378" width="38" height="38" rx="4" fill="#facc15" opacity="0.88"/><rect x="430" y="378" width="38" height="38" rx="4" fill="#93c5fd" opacity="0.88"/><rect x="472" y="378" width="38" height="38" rx="4" fill="#fb7185" opacity="0.88"/><rect x="514" y="378" width="38" height="38" rx="4" fill="#34d399" opacity="0.88"/><rect x="556" y="378" width="38" height="38" rx="4" fill="#dbeafe" opacity="0.88"/><rect x="598" y="378" width="38" height="38" rx="4" fill="#facc15" opacity="0.88"/><rect x="640" y="378" width="38" height="38" rx="4" fill="#93c5fd" opacity="0.88"/><rect x="388" y="420" width="38" height="38" rx="4" fill="#dbeafe" opacity="0.88"/><rect x="430" y="420" width="38" height="38" rx="4" fill="#facc15" opacity="0.88"/><rect x="472" y="420" width="38" height="38" rx="4" fill="#93c5fd" opacity="0.88"/><rect x="514" y="420" width="38" height="38" rx="4" fill="#fb7185" opacity="0.88"/><rect x="556" y="420" width="38" height="38" rx="4" fill="#34d399" opacity="0.88"/><rect x="598" y="420" width="38" height="38" rx="4" fill="#dbeafe" opacity="0.88"/><rect x="640" y="420" width="38" height="38" rx="4" fill="#facc15" opacity="0.88"/><rect x="388" y="462" width="38" height="38" rx="4" fill="#34d399" opacity="0.88"/><rect x="430" y="462" width="38" height="38" rx="4" fill="#dbeafe" opacity="0.88"/><rect x="472" y="462" width="38" height="38" rx="4" fill="#facc15" opacity="0.88"/><rect x="514" y="462" width="38" height="38" rx="4" fill="#93c5fd" opacity="0.88"/><rect x="556" y="462" width="38" height="38" rx="4" fill="#fb7185" opacity="0.88"/><rect x="598" y="462" width="38" height="38" rx="4" fill="#34d399" opacity="0.88"/><rect x="640" y="462" width="38" height="38" rx="4" fill="#dbeafe" opacity="0.88"/>
<rect x="735" y="245" width="200" height="34" fill="url(#heat)"/><text x="735" y="304" font-family="Inter, 'Microsoft YaHei', Arial, sans-serif" font-size="20" fill="#334155">低 → 高</text>
<text x="550" y="542" text-anchor="middle" font-family="Inter, 'Microsoft YaHei', Arial, sans-serif" font-size="18" fill="#64748b">多组学矩阵经过encoder得到当前细胞状态 z_t，加入扰动 u 和上下文 c，模型预测未来状态 z_(t+Δ t)，实验验证后回流训练。</text>
</svg>
