<svg viewBox="-24 -24 548 208" xmlns="http://www.w3.org/2000/svg" width="548" height="208" preserveAspectRatio="xMidYMid meet">
<!-- 背景粒子 -->
<circle cx="30" cy="20" fill="rgba(100,180,255,0.3)" r="1.5"></circle><circle cx="80" cy="140" fill="rgba(100,180,255,0.2)" r="1"></circle>
<circle cx="150" cy="30" fill="rgba(100,180,255,0.25)" r="1.2"></circle><circle cx="420" cy="25" fill="rgba(100,180,255,0.3)" r="1.5"></circle>
<circle cx="470" cy="130" fill="rgba(100,180,255,0.2)" r="1"></circle><circle cx="350" cy="15" fill="rgba(100,180,255,0.25)" r="1.2"></circle>
<!-- 左侧：α螺旋蛋白质结构 -->
<g transform="translate(60,80)">
<path d="M-20,-50 C-5,-45 5,-35 -10,-30 C-25,-25 -15,-15 0,-10 C15,-5 5,5 -10,10 C-25,15 -15,25 0,30 C15,35 5,45 -10,50" fill="none" opacity="0.8" stroke="#64b5f6" stroke-width="3"></path>
<path d="M-10,-50 C5,-45 15,-35 0,-30 C-15,-25 -5,-15 10,-10 C25,-5 15,5 0,10 C-15,15 -5,25 10,30 C25,35 15,45 0,50" fill="none" opacity="0.8" stroke="#42a5f5" stroke-width="3"></path>
<circle cx="-15" cy="-47" fill="#ef5350" opacity="0.7" r="4"></circle><circle cx="10" cy="-30" fill="#66bb6a" opacity="0.7" r="3.5"></circle>
<circle cx="-12" cy="-10" fill="#ffa726" opacity="0.7" r="4"></circle><circle cx="12" cy="10" fill="#ab47bc" opacity="0.7" r="3.5"></circle>
<circle cx="-12" cy="30" fill="#29b6f6" opacity="0.7" r="4"></circle><circle cx="10" cy="48" fill="#ef5350" opacity="0.7" r="3.5"></circle>
<text fill="rgba(255,255,255,0.5)" font-family="sans-serif" font-size="10" text-anchor="middle" x="0" y="70">蛋白质结构</text>
</g>
<!-- 中间：神经网络节点 -->
<g transform="translate(250,80)">
<!-- 连线 -->
<line stroke="rgba(100,180,255,0.3)" stroke-width="1" x1="-60" x2="-20" y1="-30" y2="-20"></line>
<line stroke="rgba(100,180,255,0.3)" stroke-width="1" x1="-60" x2="-20" y1="0" y2="-20"></line>
<line stroke="rgba(100,180,255,0.2)" stroke-width="1" x1="-60" x2="-20" y1="30" y2="-20"></line>
<line stroke="rgba(100,180,255,0.2)" stroke-width="1" x1="-60" x2="-20" y1="-30" y2="20"></line>
<line stroke="rgba(100,180,255,0.3)" stroke-width="1" x1="-60" x2="-20" y1="0" y2="20"></line>
<line stroke="rgba(100,180,255,0.3)" stroke-width="1" x1="-60" x2="-20" y1="30" y2="20"></line>
<line stroke="rgba(100,180,255,0.4)" stroke-width="1" x1="-20" x2="20" y1="-20" y2="-15"></line>
<line stroke="rgba(100,180,255,0.3)" stroke-width="1" x1="-20" x2="20" y1="-20" y2="15"></line>
<line stroke="rgba(100,180,255,0.3)" stroke-width="1" x1="-20" x2="20" y1="20" y2="-15"></line>
<line stroke="rgba(100,180,255,0.4)" stroke-width="1" x1="-20" x2="20" y1="20" y2="15"></line>
<line stroke="rgba(100,180,255,0.4)" stroke-width="1.5" x1="20" x2="55" y1="-15" y2="0"></line>
<line stroke="rgba(100,180,255,0.4)" stroke-width="1.5" x1="20" x2="55" y1="15" y2="0"></line>
<!-- 输入层节点 -->
<circle cx="-60" cy="-30" fill="#1e88e5" opacity="0.7" r="6"></circle><circle cx="-60" cy="0" fill="#1e88e5" opacity="0.7" r="6"></circle>
<circle cx="-60" cy="30" fill="#1e88e5" opacity="0.7" r="6"></circle>
<!-- 隐藏层 -->
<circle cx="-20" cy="-20" fill="#7c4dff" opacity="0.7" r="7"></circle><circle cx="-20" cy="20" fill="#7c4dff" opacity="0.7" r="7"></circle>
<circle cx="20" cy="-15" fill="#7c4dff" opacity="0.7" r="7"></circle><circle cx="20" cy="15" fill="#7c4dff" opacity="0.7" r="7"></circle>
<!-- 输出 -->
<circle cx="55" cy="0" fill="#00e676" opacity="0.6" r="8" stroke="#00e676" stroke-width="2"></circle>
<text fill="rgba(255,255,255,0.5)" font-family="sans-serif" font-size="10" text-anchor="middle" x="0" y="55">深度学习</text>
</g>
<!-- 右侧：细胞 -->
<g transform="translate(420,80)">
<ellipse cx="0" cy="0" fill="none" opacity="0.5" rx="42" ry="38" stroke="#4dd0e1" stroke-width="2"></ellipse>
<ellipse cx="0" cy="0" fill="none" opacity="0.3" rx="38" ry="34" stroke="#4dd0e1" stroke-dasharray="4,3" stroke-width="1"></ellipse>
<!-- 细胞核 -->
<ellipse cx="5" cy="-2" fill="rgba(77,208,225,0.15)" opacity="0.6" rx="16" ry="14" stroke="#4dd0e1" stroke-width="1.5"></ellipse>
<!-- 细胞器 -->
<ellipse cx="-18" cy="12" fill="none" opacity="0.5" rx="8" ry="5" stroke="#80cbc4" stroke-width="1" transform="rotate(-20,-18,12)"></ellipse>
<circle cx="22" cy="16" fill="none" opacity="0.5" r="4" stroke="#80cbc4" stroke-width="1"></circle>
<circle cx="-10" cy="-18" fill="rgba(128,203,196,0.3)" r="3"></circle>
<circle cx="20" cy="-14" fill="rgba(128,203,196,0.25)" r="2.5"></circle>
<!-- DNA双螺旋 in nucleus -->
<path d="M-2,-8 C2,-6 8,-4 4,-1 C0,2 -6,4 -2,7" fill="none" opacity="0.4" stroke="#fff" stroke-width="1"></path>
<path d="M6,-8 C2,-6 -4,-4 0,-1 C4,2 10,4 6,7" fill="none" opacity="0.4" stroke="#fff" stroke-width="1"></path>
<text fill="rgba(255,255,255,0.5)" font-family="sans-serif" font-size="10" text-anchor="middle" x="0" y="55">虚拟细胞</text>
</g>
<!-- 箭头连接 -->
<g>
<path d="M100,80 L160,80" marker-end="url(#arrowW)" stroke="rgba(100,180,255,0.4)" stroke-dasharray="4,3" stroke-width="1.5"></path>
<path d="M310,80 L360,80" marker-end="url(#arrowW)" stroke="rgba(100,180,255,0.4)" stroke-dasharray="4,3" stroke-width="1.5"></path>
</g>
<defs><marker id="arrowW" markerHeight="6" markerWidth="8" orient="auto" refX="8" refY="3"><path d="M0,0 L8,3 L0,6" fill="rgba(100,180,255,0.5)"></path></marker></defs>
</svg>